<svg width="48" height="48" viewBox="0 0 48 48" fill="none" xmlns="http://www.w3.org/2000/svg">
<path d="M46.5785 18.554V18.5533L46.5777 18.5511C46.2441 17.5938 45.6721 16.7274 44.8972 16.0426L43.4723 14.7821C43.3917 14.7114 43.3108 14.6433 43.2265 14.5763L40.3203 12.2713V16.8124L41.0893 17.4229L41.0923 17.4251C41.2951 17.5858 41.4841 17.7594 41.6628 17.9433L41.1248 18.3758L24.1364 32.037L6.90984 18.3758L6.33343 17.9184C6.50226 17.7426 6.68243 17.5767 6.87432 17.4232L7.67888 16.7769V12.2131L4.6441 14.6521L3.08335 16.0445C2.31358 16.7308 1.74592 17.5979 1.41638 18.5516L1.41346 18.5567L1.41419 18.5574C1.20252 19.176 1.08789 19.8296 1.08789 20.4976V40.8067C1.08789 43.6155 3.36611 45.8937 6.17495 45.8937H41.8234C44.6322 45.8937 46.9105 43.6155 46.9105 40.8067V20.5135C46.9112 19.839 46.7951 19.1783 46.579 18.5546L46.5785 18.554ZM4.64596 40.1822V22.0734C4.64596 21.7709 4.67123 21.4721 4.71591 21.1777L15.2759 29.5525L4.64596 40.1822ZM7.52325 42.3363L18.0814 31.7781L23.0369 35.708C23.3617 35.9661 23.7514 36.0932 24.1432 36.0932C24.5373 36.0932 24.9328 35.9625 25.2569 35.7006L30.04 31.8544L40.5232 42.3365L7.52325 42.3363ZM43.3526 40.135L32.8292 29.6116L43.2832 21.2041C43.3283 21.4985 43.3532 21.7981 43.3532 22.1017V40.1354L43.3526 40.135Z" fill="white"/>
<path d="M9.50684 8.3972V18.1013L12.6405 20.5868V5.23988H35.359V20.6674L38.4926 18.1471V3.67304C38.4926 2.80732 37.791 2.10638 36.926 2.10638H11.0735C10.2078 2.10638 9.50684 2.80805 9.50684 3.67304V8.3972Z" fill="white"/>
<path d="M25.5926 13.0941H17.0796C16.5025 13.0941 16.0352 12.626 16.0352 12.0496C16.0352 11.4731 16.5032 11.0051 17.0796 11.0051H25.5926C26.1697 11.0051 26.6371 11.4731 26.6371 12.0496C26.6367 12.6264 26.1694 13.0941 25.5926 13.0941Z" fill="white"/>
<path d="M28.4121 16.8544H17.0786C16.5015 16.8544 16.0342 16.3864 16.0342 15.8099C16.0342 15.2335 16.5022 14.7654 17.0786 14.7654L28.4121 14.7658C28.9892 14.7658 29.4566 15.2338 29.4566 15.8103C29.4562 16.3863 28.9893 16.8544 28.4121 16.8544Z" fill="white"/>
<path d="M30.9199 20.6147H17.0796C16.5025 20.6147 16.0352 20.1467 16.0352 19.5702C16.0352 18.9938 16.5032 18.5258 17.0796 18.5258H30.9199C31.4971 18.5258 31.9644 18.9938 31.9644 19.5702C31.964 20.1466 31.4968 20.6147 30.9199 20.6147Z" fill="white"/>
</svg>
